# xmcd
#
# Track frame offsets: 
#        150
#        13468
#        28086
#        43393
#        60075
#        75700
#        96671
#        116281
#        131545
#        150569
#        167116
#
# Disc length: 2499 seconds
#
# Revision: 0
# Processed by: cddbd v1.5.2PL0 Copyright (c) Steve Scherf et al.
# Submitted via: ExactAudioCopy v0.99pb4
#
DISCID=8d09c10b
DTITLE=Dizzee Rascal - Tongue N'Cheek
DYEAR=2009
DGENRE=Grime
TTITLE0=Bonkers
TTITLE1=Road Rage
TTITLE2=Dance Wiv Me
TTITLE3=Freaky Freaky
TTITLE4=Can't Tek No More
TTITLE5=Chillin' Wiv Da Man Dem
TTITLE6=Dirtee Cash
TTITLE7=Money, Money
TTITLE8=Leisure
TTITLE9=Holiday
TTITLE10=Bad Behaviour
EXTD=
EXTT0=
EXTT1=
EXTT2=
EXTT3=
EXTT4=
EXTT5=
EXTT6=
EXTT7=
EXTT8=
EXTT9=
EXTT10=
PLAYORDER=
